<?xml version="1.0" encoding="utf-8"?>
<!-- Generator: Adobe Illustrator 24.3.0, SVG Export Plug-In . SVG Version: 6.00 Build 0)  -->
<svg version="1.1" id="Layer_1" xmlns="http://www.w3.org/2000/svg" xmlns:xlink="http://www.w3.org/1999/xlink" x="0px" y="0px"
	 viewBox="0 0 250 250" style="enable-background:new 0 0 250 250;" xml:space="preserve">
<g>
	<path style="fill:#FFFFFF;" d="M154.08,71.97H50.97c-0.27-0.83-0.52-1.48-0.68-2.16c-1.94-8.05-3.88-16.1-5.77-24.15
		c-0.67-2.9-2.35-4.43-5.36-4.42c-6.05,0-12.09-0.05-18.13,0.02c-3.01,0.04-5.15,2.03-5.18,4.58c-0.03,2.57,2.06,4.53,5.1,4.61
		c2.76,0.07,5.53,0.02,8.29,0.02c6.83,0,6.88-0.01,8.47,6.44c1.22,4.9,2.29,9.84,3.46,14.87c-0.83,0.1-1.23,0.18-1.63,0.18
		c-8.4,0.01-16.79-0.02-25.19,0.04c-3.3,0.02-5.35,1.91-5.36,4.65c0,2.75,2.04,4.49,5.38,4.56c0.92,0.02,1.84,0,2.76,0h136.63
		c-0.1-1.1-0.15-2.21-0.15-3.34C153.61,75.86,153.76,73.89,154.08,71.97z M62.97,156.88c36.45-0.01,72.91,0.01,109.37-0.01
		c9.32-0.01,15.04-4.5,17.22-13.43c1.29-5.28,2.58-10.57,3.86-15.85c0.98-3.99,1.96-7.98,2.93-11.96c0.04-0.16,0.08-0.33,0.12-0.49
		c-1.13,0.16-2.28,0.27-3.44,0.32c-0.59,0.02-1.19,0.04-1.79,0.04c-1.48,0-2.94-0.09-4.38-0.26c-0.98,3.95-1.95,7.91-2.91,11.86
		c-1.11,4.5-2.21,8.99-3.31,13.49c-1.42,5.78-2.99,7.03-8.92,7.04c-12.91,0.01-25.81,0.01-38.71,0.01
		c-23.56,0-47.11-0.06-70.66,0.02c-14.35,0.04-23.21,14.23-16.5,26.38c3.37,6.13,8.82,9.09,16.49,9.4
		c-6.18,3.77-10.13,8.44-11.2,15.15c-1.07,6.78,0.88,12.58,5.62,17.39c7.84,7.94,20.62,7.87,28.39-0.07c3.92-4,5.86-8.84,5.75-14.43
		c-0.16-7.92-4.15-13.6-11.37-18.03h86.07c-8.17,7.62-9.69,9.74-10.53,14.9c-1.07,6.6,0.67,12.41,5.23,17.26
		c7.7,8.21,20.64,8.38,28.61,0.45c3.96-3.94,6-8.76,5.95-14.34c-0.08-8.02-4.15-13.79-10.76-18.2c1.94-0.26,3.74-0.17,5.54-0.29
		c2.38-0.15,3.76-1.67,4.11-3.88c0.35-2.28-0.72-4.08-2.92-4.82c-1.31-0.44-2.8-0.47-4.22-0.47c-40.75-0.01-81.51-0.01-122.27-0.01
		c-1.22,0-2.46,0.04-3.68-0.05c-5.05-0.35-8.69-5.3-7.54-10.2C54.2,159.2,57.45,156.89,62.97,156.88z M175.09,191.09
		c5.98,0.11,10.6,4.88,10.52,10.86c-0.07,6-5.11,10.89-11.06,10.72c-5.86-0.17-10.61-5.1-10.55-10.96
		C164.07,195.66,168.96,190.98,175.09,191.09z M71.01,191.09c6.01,0.05,10.63,4.71,10.65,10.72c0.01,6.03-4.93,10.95-10.9,10.86
		c-5.79-0.08-10.72-5.04-10.74-10.81C59.99,195.92,64.97,191.04,71.01,191.09z"/>
	<path style="fill:#FFFFFF;" d="M69.74,106.47c-8.9,0-17.79,0.01-26.69,0c-3.85-0.01-5.9-1.67-5.85-4.67
		c0.06-2.89,2.08-4.55,5.72-4.55c18-0.02,35.99-0.02,53.99,0c3.58,0,5.67,1.74,5.7,4.58c0.03,2.89-2.01,4.63-5.58,4.64
		C87.94,106.49,78.84,106.47,69.74,106.47z"/>
	<path style="fill:#FFFFFF;" d="M44.43,131.71c-8.81,0-17.61,0.02-26.42-0.01c-3.78-0.01-5.97-1.81-5.88-4.71
		c0.08-2.79,2.2-4.51,5.83-4.51c17.82-0.02,35.64-0.03,53.45,0c3.59,0.01,5.71,1.78,5.73,4.61c0.02,2.82-2.1,4.6-5.67,4.61
		C62.45,131.73,53.44,131.71,44.43,131.71z"/>
	<g>
		<path style="fill:#FFFFFF;" d="M191.24,28.1c-24.8,0-45.42,18.23-49.16,42c-0.1,0.62-0.18,1.24-0.25,1.87
			c-0.24,1.93-0.36,3.9-0.36,5.9c0,1.12,0.03,2.23,0.11,3.34c0.02,0.35,0.05,0.71,0.08,1.06c1.84,20.86,16.61,38.08,36.22,43.54
			c1.98,0.55,4,0.99,6.07,1.29c2.01,0.3,4.05,0.48,6.12,0.52c0.38,0.01,0.78,0.02,1.17,0.02c0.73,0,1.46-0.02,2.18-0.05
			c26.43-1.14,47.59-23.01,47.59-49.72C241.01,50.43,218.68,28.1,191.24,28.1z M196.47,115.14c-1.13,0.16-2.28,0.27-3.44,0.32
			c-0.59,0.02-1.19,0.04-1.79,0.04c-1.48,0-2.94-0.09-4.38-0.26c-2.09-0.24-4.13-0.66-6.09-1.23c-14.31-4.14-25.13-16.58-26.9-31.74
			c-0.04-0.35-0.08-0.7-0.11-1.06c-0.1-1.1-0.15-2.21-0.15-3.34c0-2.01,0.15-3.98,0.47-5.9c0.09-0.63,0.21-1.25,0.34-1.87
			c3.58-17.03,18.73-29.86,36.82-29.86c20.75,0,37.63,16.88,37.63,37.63C228.87,96.85,214.75,112.59,196.47,115.14z"/>
	</g>
	<g>
		<g>
			<rect x="180.51" y="56.8" style="fill:#FFFFFF;" width="38" height="3.47"/>
		</g>
	</g>
	<g>
		<g>
			<rect x="180.51" y="70.1" style="fill:#FFFFFF;" width="26" height="3.47"/>
		</g>
	</g>
	<g>
		<g>
			<rect x="210.51" y="70.1" style="fill:#FFFFFF;" width="6" height="3.47"/>
		</g>
	</g>
	<g>
		<g>
			<rect x="180.51" y="83.4" style="fill:#FFFFFF;" width="38" height="3.47"/>
		</g>
	</g>
	<g>
		<g>
			<rect x="180.51" y="96.71" style="fill:#FFFFFF;" width="30" height="3.47"/>
		</g>
	</g>
	<circle style="fill:#FFFFFF;" cx="172.01" cy="59.99" r="4"/>
	<circle style="fill:#FFFFFF;" cx="172.01" cy="84.99" r="4"/>
</g>
</svg>
