<?xml version="1.0" encoding="utf-8"?>
<!-- Generator: Adobe Illustrator 24.3.0, SVG Export Plug-In . SVG Version: 6.00 Build 0)  -->
<svg version="1.1" id="Layer_1" xmlns="http://www.w3.org/2000/svg" xmlns:xlink="http://www.w3.org/1999/xlink" x="0px" y="0px"
	 viewBox="0 0 250 250" style="enable-background:new 0 0 250 250;" xml:space="preserve">
<g>
	<g>
		<path style="fill:#FFFFFF;" d="M129.41,118.96c0-1.59,0-3.07,0-4.55c0-1,0.53-1.62,1.37-1.62c0.83,0,1.38,0.62,1.38,1.61
			c0.01,1.48,0,2.97,0,4.56c0.33,0,0.64,0,0.95,0c1.26,0,2.51-0.01,3.77,0.01c0.87,0.01,1.47,0.61,1.45,1.4
			c-0.02,0.76-0.6,1.33-1.44,1.34c-1.55,0.02-3.1,0-4.73,0c0,1.37,0,2.69,0,4c0,0.23,0.01,0.46,0,0.69
			c-0.03,0.88-0.58,1.48-1.37,1.48c-0.79,0-1.37-0.6-1.37-1.48c-0.01-1.53,0-3.06,0-4.7c-0.38,0-0.74,0-1.09,0
			c-1.21,0-2.42,0.01-3.63-0.01c-0.87-0.01-1.47-0.61-1.45-1.4c0.02-0.77,0.6-1.33,1.44-1.34
			C126.23,118.95,127.78,118.96,129.41,118.96z"/>
	</g>
	<g>
		<path style="fill:#FFFFFF;" d="M130.79,132.65c-6.79,0-12.32-5.52-12.32-12.32c0-6.79,5.52-12.32,12.32-12.32
			c6.79,0,12.32,5.52,12.32,12.32C143.1,127.12,137.58,132.65,130.79,132.65z M130.79,110.89c-5.21,0-9.44,4.24-9.44,9.44
			s4.24,9.44,9.44,9.44s9.44-4.24,9.44-9.44S135.99,110.89,130.79,110.89z"/>
	</g>
</g>
<g>
	<path style="fill:#FFFFFF;" d="M210.69,237H33.41V59.72h177.28V237z M37.95,232.45h168.19V64.27H37.95V232.45z"/>
</g>
<g>
	<path style="fill:#FFFFFF;" d="M71.52,226.16H41.8V96.09h29.72V226.16z M45.3,222.66h22.73V99.58H45.3V222.66z"/>
</g>
<g>
	<path style="fill:#FFFFFF;" d="M104.04,226.16H74.32V96.09h29.72V226.16z M77.82,222.66h22.73V99.58H77.82V222.66z"/>
</g>
<g>
	<path style="fill:#FFFFFF;" d="M203,163.05h-93.88V96.09H203V163.05z M112.61,159.55h86.89V99.58h-86.89V159.55z"/>
</g>
<g>
	<rect x="154.31" y="97.83" style="fill:#FFFFFF;" width="3.5" height="63.46"/>
</g>
<g>
	<rect x="118.73" y="162.87" style="fill:#FFFFFF;" width="28.15" height="3.5"/>
</g>
<g>
	<rect x="81.4" y="157.19" style="fill:#FFFFFF;" width="3.5" height="17.66"/>
</g>
<g>
	<rect x="59.72" y="157.19" style="fill:#FFFFFF;" width="3.5" height="17.66"/>
</g>
<g>
	<rect x="161.04" y="120.56" style="fill:#FFFFFF;" width="36.19" height="3.5"/>
</g>
<g>
	<rect x="161.04" y="142.24" style="fill:#FFFFFF;" width="36.19" height="3.5"/>
</g>
<g>
	<path style="fill:#FFFFFF;" d="M145.48,161.3h-2.8v-8.22c0-2.56-1-4.97-2.82-6.79c-1.82-1.82-4.23-2.82-6.79-2.82
		c-5.3,0-9.62,4.31-9.62,9.62v8.22h-2.8v-8.22c0-6.84,5.57-12.41,12.41-12.41c3.3,0,6.42,1.29,8.77,3.64
		c2.35,2.35,3.64,5.46,3.64,8.77V161.3z"/>
</g>
<g>
	<circle style="fill:#FFFFFF;" cx="127.99" cy="156.05" r="1.75"/>
</g>
<g>
	<path style="fill:#FFFFFF;" d="M182.19,107.8h7.69c0,0-1.4,8.74-1.05,12.59h-5.94C182.89,120.39,183.59,119.34,182.19,107.8z"/>
</g>
<g>
	<rect x="182.54" y="117.24" style="fill:#ED4C58;" width="6.64" height="3.5"/>
</g>
<g>
	<rect x="166.86" y="104.38" style="fill:#ED4C58;" width="5.84" height="3.07"/>
</g>
<g>
	<path style="fill:#FFFFFF;" d="M174.85,120.66h-10.14v-9.38c0-1.94,1.59-3.53,3.53-3.53h3.09c1.94,0,3.53,1.59,3.53,3.53V120.66z"
		/>
</g>
<g>
	<rect x="183.29" y="126.06" style="fill:#39B54A;" width="5.84" height="3.07"/>
</g>
<g>
	<path style="fill:#FFFFFF;" d="M191.28,142.34h-10.14v-9.38c0-1.94,1.59-3.53,3.53-3.53h3.09c1.94,0,3.53,1.59,3.53,3.53V142.34z"
		/>
</g>
<g>
	<g>
		<g>
			<path style="fill:#39B54A;" d="M172.61,131.13h-5.66v-4.01h5.66V131.13z M167.42,130.66h4.72v-3.07h-4.72V130.66z"/>
		</g>
	</g>
	<g>
		<path style="fill:#39B54A;" d="M172.84,141.98h-6.13c-1.1,0-2.01-0.9-2.01-2.01v-8.96c0-1.1,0.9-2.01,2.01-2.01h6.13
			c1.1,0,2.01,0.9,2.01,2.01v8.96C174.85,141.07,173.95,141.98,172.84,141.98z"/>
	</g>
	<g>
		<circle style="fill:#FFFFFF;" cx="169.78" cy="135.49" r="3.54"/>
	</g>
	<g>
		<g>
			<path style="fill:#39B54A;" d="M169.14,137.71v-1.65h-1.61v-1.13h1.61v-1.65h1.27v1.65h1.61v1.13h-1.61v1.65H169.14z"/>
		</g>
	</g>
</g>
<g>
	<path style="fill:#FFFFFF;" d="M185.86,228.61h-60.49v-50.35h60.49V228.61z M130.62,223.36h50V183.5h-50V223.36z"/>
</g>
<g>
	<rect x="112.61" y="178.23" style="fill:#FFFFFF;" width="88.46" height="4.55"/>
</g>
<g>
	<path style="fill:#FFFFFF;" d="M175.88,221.65h-19.99v-24.63h19.99V221.65z M158.03,219.85h15.71v-21.03h-15.71V219.85z"/>
</g>
<g>
	<path style="fill:#FFFFFF;" d="M92.27,69.09c1.54,1.41,2.32,3.38,2.32,5.9c0,2.52-0.75,4.51-2.26,5.98c-1.51,1.47-3.8,2.2-6.89,2.2
		H79.9v-16.2h5.72C88.51,66.97,90.73,67.68,92.27,69.09z M89.62,78.72c0.89-0.83,1.33-2.05,1.33-3.64c0-1.59-0.44-2.82-1.33-3.67
		s-2.25-1.29-4.09-1.29h-2.02v9.85h2.29C87.46,79.97,88.73,79.55,89.62,78.72z"/>
	<path style="fill:#FFFFFF;" d="M100.71,76.45v6.72h-3.48V65.97h3.48v6.12c1.05-1.07,2.23-1.6,3.53-1.6c1.3,0,2.41,0.46,3.3,1.39
		c0.9,0.93,1.34,2.16,1.34,3.71v7.58h-3.48v-6.81c0-1.91-0.7-2.87-2.11-2.87c-0.7,0-1.3,0.25-1.82,0.75
		C100.97,74.73,100.71,75.47,100.71,76.45z"/>
	<path style="fill:#FFFFFF;" d="M115.56,80.64v-4.17h-4.06v-2.85h4.06v-4.17h3.2v4.17h4.06v2.85h-4.06v4.17H115.56z"/>
	<path style="fill:#FFFFFF;" d="M129.05,83.16h-3.47V65.97h3.47v8.83l3.87-4.12h4.38l-4.75,5.05l4.94,7.44h-4.12l-3.17-4.77
		l-1.14,1.18V83.16z"/>
	<path style="fill:#FFFFFF;" d="M149.62,83.16h-3.27v-1.51c-0.9,1.13-2,1.69-3.32,1.69c-1.32,0-2.43-0.38-3.32-1.15
		c-0.9-0.76-1.34-1.78-1.34-3.06c0-1.27,0.46-2.23,1.39-2.86c0.93-0.63,2.19-0.95,3.8-0.95h2.6v-0.07c0-1.33-0.7-1.99-2.11-1.99
		c-0.6,0-1.24,0.12-1.91,0.36c-0.67,0.24-1.24,0.54-1.7,0.89l-1.55-2.25c1.64-1.19,3.51-1.78,5.61-1.78c1.51,0,2.75,0.38,3.71,1.14
		c0.96,0.76,1.44,1.95,1.44,3.59V83.16z M146.12,78.41v-0.6h-2.18c-1.39,0-2.09,0.43-2.09,1.3c0,0.45,0.17,0.79,0.5,1.03
		c0.33,0.24,0.81,0.36,1.43,0.36c0.62,0,1.16-0.19,1.63-0.57C145.89,79.55,146.12,79.05,146.12,78.41z"/>
</g>
<g>
	<path style="fill:#FFFFFF;" d="M96.78,91.85v2.14H95.3v-6.41h2.26c0.45,0,0.84,0.05,1.16,0.16c0.32,0.11,0.59,0.25,0.8,0.44
		c0.21,0.19,0.36,0.41,0.46,0.66c0.1,0.26,0.15,0.53,0.15,0.83c0,0.32-0.05,0.61-0.15,0.88c-0.1,0.27-0.26,0.5-0.47,0.69
		c-0.21,0.19-0.48,0.34-0.8,0.45c-0.32,0.11-0.71,0.16-1.15,0.16H96.78z M96.78,90.73h0.77c0.39,0,0.67-0.09,0.84-0.28
		c0.17-0.18,0.26-0.44,0.26-0.77c0-0.15-0.02-0.28-0.07-0.4c-0.04-0.12-0.11-0.22-0.2-0.31c-0.09-0.09-0.2-0.15-0.34-0.2
		c-0.14-0.05-0.3-0.07-0.49-0.07h-0.77V90.73z"/>
	<path style="fill:#FFFFFF;" d="M100.91,93.99V87.4h1.36v2.42c0.16-0.14,0.34-0.25,0.53-0.34c0.19-0.09,0.42-0.13,0.69-0.13
		c0.25,0,0.47,0.04,0.66,0.13c0.19,0.09,0.35,0.21,0.49,0.36c0.13,0.15,0.23,0.34,0.3,0.55c0.07,0.21,0.1,0.44,0.1,0.69v2.9h-1.36
		v-2.9c0-0.22-0.05-0.4-0.15-0.52c-0.1-0.12-0.25-0.19-0.45-0.19c-0.15,0-0.29,0.03-0.42,0.1c-0.13,0.06-0.26,0.15-0.38,0.26v3.25
		H100.91z"/>
	<path style="fill:#FFFFFF;" d="M109.16,93.99c-0.13,0-0.23-0.02-0.29-0.05c-0.07-0.04-0.12-0.11-0.16-0.22l-0.1-0.25
		c-0.11,0.1-0.22,0.18-0.33,0.26c-0.11,0.07-0.21,0.14-0.33,0.19c-0.11,0.05-0.23,0.09-0.36,0.11c-0.13,0.02-0.27,0.04-0.42,0.04
		c-0.21,0-0.4-0.03-0.57-0.08c-0.17-0.05-0.31-0.13-0.43-0.24c-0.12-0.11-0.21-0.24-0.27-0.4c-0.06-0.16-0.1-0.34-0.1-0.54
		c0-0.16,0.04-0.33,0.12-0.5c0.08-0.17,0.22-0.33,0.43-0.47c0.2-0.14,0.48-0.26,0.82-0.35c0.34-0.09,0.78-0.14,1.3-0.14v-0.2
		c0-0.27-0.05-0.46-0.16-0.58c-0.11-0.12-0.27-0.18-0.47-0.18c-0.16,0-0.29,0.02-0.4,0.05c-0.1,0.04-0.19,0.07-0.27,0.12
		c-0.08,0.04-0.16,0.08-0.24,0.12c-0.08,0.04-0.17,0.05-0.27,0.05c-0.09,0-0.17-0.02-0.24-0.07c-0.07-0.05-0.12-0.1-0.16-0.17
		L106,90.06c0.28-0.24,0.58-0.42,0.92-0.54c0.34-0.12,0.7-0.18,1.08-0.18c0.28,0,0.52,0.04,0.75,0.13c0.22,0.09,0.41,0.21,0.56,0.37
		c0.15,0.16,0.27,0.35,0.35,0.57c0.08,0.22,0.12,0.46,0.12,0.72v2.85H109.16z M107.59,93.16c0.18,0,0.33-0.03,0.46-0.09
		c0.13-0.06,0.27-0.16,0.4-0.3v-0.62c-0.27,0-0.5,0.02-0.67,0.05c-0.18,0.04-0.32,0.08-0.42,0.13c-0.1,0.05-0.17,0.11-0.21,0.18
		c-0.04,0.07-0.06,0.14-0.06,0.22c0,0.16,0.04,0.27,0.13,0.33C107.31,93.13,107.43,93.16,107.59,93.16"/>
	<path style="fill:#FFFFFF;" d="M110.75,93.99v-4.56h0.81c0.07,0,0.12,0.01,0.17,0.02c0.05,0.01,0.08,0.03,0.11,0.05
		c0.03,0.02,0.05,0.06,0.07,0.1c0.02,0.04,0.03,0.09,0.04,0.15l0.07,0.43c0.17-0.26,0.35-0.46,0.56-0.61
		c0.21-0.15,0.44-0.22,0.68-0.22c0.21,0,0.38,0.05,0.5,0.15l-0.18,1c-0.01,0.06-0.04,0.1-0.07,0.13c-0.04,0.02-0.08,0.04-0.14,0.04
		c-0.05,0-0.11-0.01-0.18-0.02c-0.07-0.01-0.15-0.02-0.26-0.02c-0.36,0-0.64,0.19-0.84,0.57v2.8H110.75z"/>
	<path style="fill:#FFFFFF;" d="M114.39,93.99v-4.56h0.84c0.08,0,0.16,0.02,0.21,0.06s0.1,0.1,0.12,0.17l0.07,0.25
		c0.08-0.08,0.16-0.15,0.24-0.22c0.08-0.07,0.17-0.12,0.27-0.17c0.1-0.05,0.2-0.09,0.31-0.11c0.11-0.03,0.23-0.04,0.36-0.04
		c0.28,0,0.5,0.07,0.68,0.21c0.18,0.14,0.32,0.33,0.41,0.57c0.08-0.14,0.17-0.26,0.28-0.36c0.11-0.1,0.23-0.18,0.36-0.24
		c0.13-0.06,0.26-0.11,0.4-0.14c0.14-0.03,0.28-0.04,0.42-0.04c0.26,0,0.49,0.04,0.7,0.12c0.2,0.08,0.37,0.19,0.51,0.34
		c0.14,0.15,0.24,0.33,0.31,0.55c0.07,0.22,0.11,0.46,0.11,0.73v2.9h-1.36v-2.9c0-0.47-0.2-0.71-0.61-0.71
		c-0.18,0-0.34,0.06-0.46,0.18c-0.12,0.12-0.18,0.3-0.18,0.53v2.9h-1.36v-2.9c0-0.26-0.05-0.44-0.15-0.55
		c-0.1-0.11-0.25-0.16-0.45-0.16c-0.12,0-0.24,0.03-0.35,0.08c-0.11,0.06-0.21,0.13-0.31,0.22v3.3H114.39z"/>
	<path style="fill:#FFFFFF;" d="M125.11,93.99c-0.13,0-0.23-0.02-0.29-0.05c-0.07-0.04-0.12-0.11-0.16-0.22l-0.1-0.25
		c-0.11,0.1-0.22,0.18-0.33,0.26c-0.11,0.07-0.21,0.14-0.33,0.19c-0.11,0.05-0.23,0.09-0.36,0.11c-0.13,0.02-0.27,0.04-0.42,0.04
		c-0.21,0-0.4-0.03-0.57-0.08c-0.17-0.05-0.31-0.13-0.43-0.24c-0.12-0.11-0.21-0.24-0.27-0.4c-0.06-0.16-0.1-0.34-0.1-0.54
		c0-0.16,0.04-0.33,0.12-0.5c0.08-0.17,0.22-0.33,0.43-0.47c0.2-0.14,0.48-0.26,0.82-0.35c0.34-0.09,0.78-0.14,1.3-0.14v-0.2
		c0-0.27-0.05-0.46-0.16-0.58c-0.11-0.12-0.27-0.18-0.47-0.18c-0.16,0-0.29,0.02-0.4,0.05c-0.1,0.04-0.19,0.07-0.27,0.12
		c-0.08,0.04-0.16,0.08-0.24,0.12c-0.08,0.04-0.17,0.05-0.27,0.05c-0.09,0-0.17-0.02-0.24-0.07c-0.07-0.05-0.12-0.1-0.16-0.17
		l-0.25-0.43c0.28-0.24,0.58-0.42,0.92-0.54c0.34-0.12,0.7-0.18,1.08-0.18c0.28,0,0.52,0.04,0.75,0.13
		c0.22,0.09,0.41,0.21,0.56,0.37c0.15,0.16,0.27,0.35,0.35,0.57c0.08,0.22,0.12,0.46,0.12,0.72v2.85H125.11z M123.55,93.16
		c0.18,0,0.33-0.03,0.46-0.09c0.13-0.06,0.27-0.16,0.4-0.3v-0.62c-0.27,0-0.5,0.02-0.67,0.05c-0.18,0.04-0.32,0.08-0.42,0.13
		c-0.1,0.05-0.17,0.11-0.21,0.18c-0.04,0.07-0.06,0.14-0.06,0.22c0,0.16,0.04,0.27,0.13,0.33
		C123.26,93.13,123.38,93.16,123.55,93.16"/>
	<path style="fill:#FFFFFF;" d="M129.99,90.51c-0.04,0.05-0.08,0.09-0.12,0.12c-0.04,0.03-0.09,0.04-0.16,0.04
		c-0.07,0-0.13-0.02-0.18-0.05c-0.05-0.03-0.12-0.07-0.18-0.11c-0.07-0.04-0.15-0.08-0.24-0.11c-0.09-0.03-0.2-0.05-0.34-0.05
		c-0.17,0-0.31,0.03-0.43,0.09c-0.12,0.06-0.22,0.15-0.3,0.26c-0.08,0.11-0.14,0.25-0.18,0.42c-0.04,0.17-0.06,0.35-0.06,0.56
		c0,0.44,0.08,0.77,0.25,1.01c0.17,0.23,0.4,0.35,0.7,0.35c0.16,0,0.28-0.02,0.38-0.06c0.09-0.04,0.17-0.08,0.24-0.13
		c0.06-0.05,0.12-0.09,0.18-0.13c0.05-0.04,0.12-0.06,0.2-0.06c0.11,0,0.19,0.04,0.25,0.12l0.4,0.49c-0.14,0.16-0.29,0.29-0.44,0.39
		c-0.16,0.1-0.31,0.18-0.48,0.24c-0.16,0.06-0.33,0.1-0.49,0.12c-0.16,0.02-0.32,0.03-0.48,0.03c-0.28,0-0.54-0.05-0.8-0.16
		c-0.25-0.11-0.48-0.26-0.67-0.46c-0.19-0.2-0.34-0.45-0.46-0.74c-0.11-0.29-0.17-0.63-0.17-1c0-0.33,0.05-0.64,0.15-0.92
		c0.1-0.29,0.24-0.53,0.44-0.74c0.19-0.21,0.43-0.37,0.71-0.49c0.28-0.12,0.61-0.18,0.98-0.18c0.36,0,0.67,0.06,0.94,0.17
		c0.27,0.11,0.51,0.28,0.73,0.5L129.99,90.51z"/>
	<path style="fill:#FFFFFF;" d="M132.84,95.17c-0.04,0.09-0.09,0.16-0.15,0.2c-0.06,0.04-0.15,0.06-0.28,0.06h-1.02l0.88-1.85
		l-1.82-4.16h1.21c0.11,0,0.19,0.02,0.25,0.07c0.06,0.05,0.1,0.1,0.12,0.17l0.75,1.97c0.07,0.18,0.13,0.36,0.17,0.55
		c0.03-0.09,0.06-0.19,0.1-0.28c0.04-0.09,0.07-0.18,0.1-0.28l0.68-1.96c0.02-0.07,0.07-0.12,0.14-0.17
		c0.07-0.05,0.14-0.07,0.22-0.07h1.1L132.84,95.17z"/>
</g>
<g>
	<g>
		<g>
			<path style="fill:#FFFFFF;" d="M160.32,79.37c-0.28,0.35-0.55,0.69-0.83,1.02c-0.25,0.3-0.51,0.6-0.86,0.78
				c-0.27,0.14-0.55,0.23-0.85,0.09c-0.2-0.09-0.28-0.26-0.22-0.42c0.06-0.17,0.19-0.24,0.37-0.21c0.09,0.01,0.15,0.08,0.22,0.14
				c0.2,0.19,0.29,0.2,0.52,0.03c0.25-0.19,0.47-0.42,0.67-0.67c0.27-0.33,0.52-0.67,0.79-1.02c-0.71-0.89-0.98-1.96-1.34-3
				c-0.06-0.18-0.14-0.28-0.37-0.21c-0.26,0.89-0.52,1.79-0.78,2.71c0.37,0.07,0.7,0.04,1.04-0.03c0.02,0.19-0.06,0.25-0.23,0.28
				c-0.35,0.06-0.71,0.04-1.06,0c-0.58-0.07-1.16-0.04-1.74,0.07c0-0.22,0.09-0.32,0.29-0.34c0.61-0.08,0.93-0.46,1.09-1.04
				c0.29-1.07,0.6-2.12,0.9-3.19c0.11-0.38,0.09-0.4-0.29-0.46c-0.01-0.19,0.09-0.24,0.27-0.24c0.4-0.01,0.79-0.09,1.2-0.18
				c-0.2,0.71-0.4,1.39-0.6,2.07c0.71,0.12,1.32-0.01,1.83-0.52c0.22-0.22,0.36-0.49,0.39-0.8c0.06-0.6-0.34-1.09-1.02-1.19
				c-1.3-0.18-2.45,0.19-3.42,1.07c-0.37,0.33-0.59,0.77-0.64,1.28c-0.04,0.41,0.12,0.72,0.43,0.96c0.09,0.07,0.19,0.14,0.27,0.23
				c0.08,0.08,0.12,0.17,0.07,0.28c-0.05,0.1-0.13,0.16-0.24,0.17c-0.22,0.03-0.4-0.06-0.55-0.22c-0.32-0.35-0.42-0.77-0.4-1.23
				c0.03-0.73,0.34-1.34,0.89-1.79c1.38-1.1,2.93-1.41,4.63-0.94c0.11,0.03,0.22,0.08,0.32,0.14c0.69,0.35,0.89,1.05,0.48,1.71
				c-0.38,0.61-0.96,0.91-1.63,1.08c-0.14,0.04-0.29,0.06-0.46,0.1c0.5,0.82,0.7,1.76,1.17,2.61c0.15-0.17,0.29-0.34,0.43-0.51
				c0.32-0.36,0.67-0.67,1.11-0.86c0.16-0.07,0.33-0.13,0.51-0.11c0.17,0.02,0.3,0.1,0.32,0.28c0.02,0.18-0.09,0.27-0.26,0.3
				c-0.08,0.02-0.16,0.04-0.24,0.04c-0.53-0.01-0.96,0.21-1.3,0.61c-0.55,0.65-0.53,0.42-0.05,1.11c0.25,0.36,0.59,0.62,1.04,0.7
				c0.47,0.08,0.77-0.09,0.94-0.52c0.03-0.07,0.05-0.14,0.1-0.2c0.12-0.16,0.28-0.19,0.45-0.12c0.18,0.08,0.22,0.23,0.16,0.41
				c-0.12,0.33-0.38,0.52-0.7,0.63c-0.76,0.26-1.47,0.11-2.13-0.32C160.74,79.8,160.53,79.59,160.32,79.37z"/>
		</g>
		<g>
			<path style="fill:#FFFFFF;" d="M159.51,83.49c-3.58,0-6.49-2.91-6.49-6.49s2.91-6.49,6.49-6.49c3.58,0,6.49,2.91,6.49,6.49
				S163.09,83.49,159.51,83.49z M159.51,70.9c-3.36,0-6.1,2.74-6.1,6.1s2.74,6.1,6.1,6.1c3.36,0,6.1-2.74,6.1-6.1
				S162.88,70.9,159.51,70.9z"/>
		</g>
	</g>
</g>
<g>
	<polygon style="fill:#FFFFFF;" points="244.51,64.78 210.74,64.78 210.74,59.61 220.53,59.61 121.35,14.75 27.46,59.61 
		33.41,59.61 33.41,64.78 4.64,64.78 121.29,9.05 	"/>
</g>
</svg>
