<?xml version="1.0" encoding="utf-8"?>
<!-- Generator: Adobe Illustrator 24.3.0, SVG Export Plug-In . SVG Version: 6.00 Build 0)  -->
<svg version="1.1" id="Layer_1" xmlns="http://www.w3.org/2000/svg" xmlns:xlink="http://www.w3.org/1999/xlink" x="0px" y="0px"
	 viewBox="0 0 250 250" style="enable-background:new 0 0 250 250;" xml:space="preserve">
<g>
	<g>
		<path style="fill:#FFFFFF;" d="M63.84,119.75c-6.78,0-13.37-0.04-19.88-0.13c-17.08-0.23-30.12-13.27-30.34-30.33
			c-0.18-14.28-0.18-27.54,0.01-40.56c0.24-16.51,13.44-29.75,30.05-30.14c4.76-0.11,9.55-0.08,14.18-0.06
			c2.18,0.01,4.37,0.02,6.55,0.02l0,0c1.9,0,3.81-0.01,5.71-0.02c4.51-0.02,9.17-0.04,13.79,0.03
			c17.35,0.26,30.56,13.49,30.74,30.77c0.14,14.16,0.14,27.16-0.01,39.73c-0.2,17.22-13.33,30.35-30.54,30.56
			C77.12,119.71,70.4,119.75,63.84,119.75z M51.71,32.51c-2.58,0-5.16,0.02-7.7,0.08c-9.2,0.22-16.24,7.24-16.38,16.35
			c-0.19,12.88-0.19,26.02-0.01,40.17c0.12,9.29,7.23,16.38,16.53,16.51c12.69,0.17,25.71,0.17,39.79,0.01
			c9.57-0.11,16.59-7.15,16.71-16.73c0.15-12.46,0.15-25.36,0.01-39.42c-0.1-9.81-7.07-16.77-16.95-16.91
			c-4.48-0.07-9.08-0.05-13.52-0.03c-1.92,0.01-3.84,0.02-5.76,0.02h0c-2.22,0-4.43-0.01-6.64-0.02
			C55.78,32.52,53.75,32.51,51.71,32.51z"/>
	</g>
	<g>
		<path style="fill:#FFFFFF;" d="M64.08,238.51c-6.57,0-13.12-0.03-19.62-0.09c-17.47-0.17-30.74-13.54-30.88-31.09
			c-0.1-12.97-0.1-26.05,0-38.89c0.14-17.9,13.31-30.97,31.31-31.09c12.94-0.08,25.88-0.08,38.48,0
			c17.99,0.12,31.15,13.37,31.31,31.49c0.04,4.42,0.03,8.89,0.02,13.22c0,1.95-0.01,3.89-0.01,5.84v0c0,2.04,0.01,4.08,0.01,6.11
			c0.01,4.37,0.03,8.89-0.03,13.36c-0.22,17.82-13.21,30.88-30.89,31.05C77.23,238.48,70.65,238.51,64.08,238.51z M64.19,151.28
			c-6.37,0-12.79,0.02-19.2,0.06c-10.32,0.07-17.32,6.98-17.4,17.2c-0.1,12.77-0.1,25.78,0,38.67c0.08,10.03,7.07,17.1,17.01,17.2
			c12.9,0.13,26.04,0.13,39.04,0c9.9-0.1,16.9-7.18,17.03-17.22c0.05-4.36,0.04-8.83,0.03-13.14c-0.01-2.05-0.01-4.11-0.01-6.16
			c0-1.96,0-3.91,0.01-5.87c0.01-4.29,0.02-8.72-0.02-13.06c-0.09-10.63-6.92-17.54-17.4-17.61
			C76.99,151.3,70.61,151.28,64.19,151.28z"/>
	</g>
	<g>
		<path style="fill:#FFFFFF;" d="M182.91,238.49c-6.43,0-12.86-0.02-19.24-0.07c-18-0.13-31.17-13.37-31.32-31.49
			c-0.04-4.46-0.03-8.97-0.02-13.33c0-1.91,0.01-3.82,0.01-5.73c0-2.03-0.01-4.06-0.01-6.1c-0.01-4.38-0.03-8.9,0.03-13.37
			c0.21-17.84,13.2-30.9,30.89-31.06c13.04-0.12,26.26-0.12,39.31,0c17.47,0.16,30.74,13.52,30.89,31.08
			c0.11,13.02,0.11,26.11,0,38.9c-0.15,17.89-13.31,30.97-31.29,31.1C195.76,238.47,189.34,238.49,182.91,238.49z M182.9,151.26
			c-6.52,0-13.05,0.03-19.52,0.09c-9.91,0.09-16.9,7.17-17.02,17.22c-0.05,4.37-0.04,8.84-0.03,13.17c0.01,2.05,0.01,4.09,0.01,6.14
			v0c0,1.92,0,3.84-0.01,5.75c-0.01,4.33-0.02,8.8,0.02,13.18c0.09,10.62,6.92,17.53,17.42,17.6c12.7,0.09,25.58,0.09,38.29,0
			c10.32-0.07,17.3-6.99,17.39-17.21c0.1-12.71,0.1-25.72,0-38.67c-0.08-10.03-7.08-17.1-17.01-17.19
			C195.95,151.29,189.42,151.26,182.9,151.26z"/>
	</g>
	<g>
		<path style="fill:#FFFFFF;" d="M176.65,63.23c0-7.23-0.02-13.99,0.01-20.76c0.02-4.57,2.41-7.38,6.23-7.4
			c3.8-0.02,6.27,2.83,6.29,7.35c0.03,6.77,0.01,13.54,0.01,20.8c1.52,0,2.93,0,4.33,0c5.73,0,11.46-0.06,17.19,0.03
			c3.96,0.06,6.7,2.79,6.62,6.38c-0.08,3.48-2.73,6.07-6.57,6.11c-7.07,0.08-14.13,0.02-21.58,0.02c0,6.24,0,12.25,0,18.26
			c0,1.04,0.02,2.08-0.01,3.13c-0.12,4.02-2.65,6.76-6.24,6.77c-3.58,0.01-6.23-2.74-6.27-6.73c-0.07-6.98-0.02-13.95-0.02-21.41
			c-1.74,0-3.36,0-4.97,0c-5.52,0-11.05,0.06-16.57-0.03c-3.96-0.06-6.69-2.79-6.61-6.39c0.08-3.5,2.72-6.06,6.57-6.1
			C162.14,63.17,169.2,63.23,176.65,63.23z"/>
		<g>
			<path style="fill:#FFFFFF;" d="M182.92,123c-29.5,0-53.51-24-53.51-53.51s24-53.51,53.51-53.51c29.5,0,53.51,24,53.51,53.51
				S212.42,123,182.92,123z M182.92,23.79c-25.2,0-45.7,20.5-45.7,45.7s20.5,45.7,45.7,45.7s45.7-20.5,45.7-45.7
				S208.12,23.79,182.92,23.79z"/>
		</g>
	</g>
</g>
</svg>
