<?xml version="1.0" encoding="utf-8"?>
<!-- Generator: Adobe Illustrator 24.3.0, SVG Export Plug-In . SVG Version: 6.00 Build 0)  -->
<svg version="1.1" id="Layer_1" xmlns="http://www.w3.org/2000/svg" xmlns:xlink="http://www.w3.org/1999/xlink" x="0px" y="0px"
	 viewBox="0 0 250 250" style="enable-background:new 0 0 250 250;" xml:space="preserve">
<g>
	<g>
		<g>
			<path style="fill:#FFFFFF;" d="M227.5,220.5h-205c-8.82,0-16-7.18-16-16v-135c0-8.82,7.18-16,16-16h205c8.82,0,16,7.18,16,16v135
				C243.5,213.32,236.32,220.5,227.5,220.5z M22.5,61.5c-4.41,0-8,3.59-8,8v135c0,4.41,3.59,8,8,8h205c4.41,0,8-3.59,8-8v-135
				c0-4.41-3.59-8-8-8H22.5z"/>
		</g>
	</g>
	<g>
		<g>
			<path style="fill:#FFFFFF;" d="M206.5,122.5c-12.13,0-22-9.87-22-22s9.87-22,22-22s22,9.87,22,22S218.63,122.5,206.5,122.5z
				 M206.5,86.5c-7.72,0-14,6.28-14,14s6.28,14,14,14s14-6.28,14-14S214.22,86.5,206.5,86.5z"/>
		</g>
	</g>
	<g>
		<g>
			<path style="fill:#FFFFFF;" d="M160.72,200.44h-68.9c-9.83,0-17.82-8-17.82-17.82V80.45c0-4.11,1.44-8.13,4.05-11.31l27.21-33.13
				c3.4-4.14,8.42-6.51,13.77-6.51h42.11c9.83,0,17.82,8,17.82,17.82v10.19l-0.42,125.16C178.51,192.47,170.52,200.44,160.72,200.44
				z M119.03,37.5c-2.95,0-5.72,1.31-7.59,3.59L84.23,74.21C82.79,75.97,82,78.18,82,80.45v102.16c0,5.42,4.41,9.82,9.82,9.82h68.9
				c5.4,0,9.8-4.39,9.82-9.79l0.42-125.15V47.32c0-5.42-4.41-9.82-9.82-9.82H119.03z"/>
		</g>
	</g>
	<g>
		<g>
			<g>
				<path style="fill:#FFFFFF;" d="M132.21,147.38c-1.66,2.04-3.24,4.03-4.88,5.98c-1.48,1.75-2.98,3.51-5.06,4.6
					c-1.57,0.82-3.21,1.33-4.96,0.53c-1.15-0.52-1.66-1.51-1.3-2.48c0.37-0.99,1.11-1.39,2.14-1.26c0.56,0.07,0.9,0.48,1.28,0.84
					c1.19,1.14,1.71,1.19,3.03,0.2c1.49-1.13,2.77-2.49,3.93-3.94c1.56-1.96,3.07-3.96,4.63-5.98c-4.14-5.23-5.77-11.51-7.87-17.57
					c-0.37-1.08-0.83-1.63-2.18-1.22c-1.5,5.2-3.03,10.53-4.57,15.88c2.14,0.4,4.1,0.22,6.1-0.19c0.13,1.11-0.33,1.49-1.33,1.65
					c-2.08,0.33-4.14,0.23-6.21-0.01c-3.41-0.41-6.8-0.24-10.22,0.44c-0.03-1.26,0.52-1.87,1.68-2.02c3.58-0.48,5.46-2.68,6.37-6.07
					c1.68-6.25,3.54-12.45,5.28-18.69c0.62-2.23,0.52-2.33-1.68-2.71c-0.06-1.13,0.53-1.38,1.57-1.41c2.33-0.05,4.61-0.53,7.02-1.03
					c-1.2,4.14-2.36,8.13-3.53,12.16c4.15,0.71,7.76-0.03,10.73-3.03c1.29-1.3,2.1-2.85,2.3-4.68c0.37-3.51-1.99-6.42-6.01-6.98
					c-7.64-1.06-14.38,1.11-20.08,6.27c-2.17,1.96-3.45,4.51-3.76,7.48c-0.25,2.38,0.68,4.2,2.51,5.64c0.54,0.43,1.1,0.85,1.58,1.34
					c0.44,0.44,0.69,0.99,0.39,1.65c-0.28,0.61-0.75,0.93-1.4,1.01c-1.32,0.16-2.37-0.37-3.23-1.31c-1.88-2.04-2.45-4.52-2.32-7.2
					c0.2-4.26,1.97-7.87,5.23-10.49c8.07-6.47,17.2-8.25,27.19-5.51c0.66,0.18,1.29,0.48,1.91,0.79c4.06,2.06,5.21,6.15,2.79,10.03
					c-2.22,3.56-5.65,5.35-9.58,6.35c-0.84,0.21-1.69,0.36-2.69,0.58c2.96,4.81,4.13,10.34,6.84,15.33
					c0.87-1.02,1.69-2.01,2.54-2.97c1.85-2.09,3.92-3.91,6.52-5.04c0.96-0.42,1.95-0.74,3.01-0.62c0.99,0.11,1.76,0.57,1.86,1.65
					c0.1,1.05-0.54,1.58-1.5,1.79c-0.46,0.1-0.94,0.22-1.4,0.22c-3.12-0.05-5.63,1.22-7.6,3.57c-3.2,3.8-3.13,2.45-0.27,6.5
					c1.48,2.09,3.44,3.64,6.08,4.11c2.73,0.49,4.51-0.5,5.5-3.07c0.15-0.4,0.31-0.82,0.56-1.16c0.68-0.92,1.62-1.14,2.64-0.7
					c1.06,0.46,1.29,1.37,0.94,2.38c-0.68,1.96-2.24,3.06-4.08,3.7c-4.45,1.53-8.6,0.62-12.48-1.85
					C134.69,149.9,133.49,148.66,132.21,147.38z"/>
			</g>
			<g>
				<path style="fill:#FFFFFF;" d="M127.5,171.5c-20.99,0-38.06-17.07-38.06-38.06s17.07-38.06,38.06-38.06s38.06,17.07,38.06,38.06
					S148.49,171.5,127.5,171.5z M127.5,97.64c-19.74,0-35.8,16.06-35.8,35.8s16.06,35.8,35.8,35.8s35.8-16.06,35.8-35.8
					S147.24,97.64,127.5,97.64z"/>
			</g>
		</g>
	</g>
</g>
</svg>
