<svg xmlns="http://www.w3.org/2000/svg" width="29.691" height="29.704" viewBox="0 0 29.691 29.704">
  <path id="Path_131" data-name="Path 131" d="M23.118,2.05h1.564c.008.05.041.05.083.058a7.16,7.16,0,0,1,2.6.745,7.784,7.784,0,0,1,4.13,5,11.786,11.786,0,0,0,.273,1.217v1.68c-.149.2-.108.439-.149.654a7.916,7.916,0,0,1-2.259,4.122c-.521.513-1.035,1.035-1.564,1.564.074.05.124.091.182.124a7.859,7.859,0,0,1,3.6,4.974,7.828,7.828,0,0,0,.19.977v1.622c-.116.066-.083.19-.091.281a6.788,6.788,0,0,1-.463,1.722A7.779,7.779,0,0,1,26,31.465c-.43.124-.886.132-1.308.281H23.127c-.033-.091-.116-.05-.174-.058a7.845,7.845,0,0,1-4.436-2.127,8.251,8.251,0,0,1-1.4-1.788l-1.589,1.589a7.854,7.854,0,0,1-3.708,2.144c-.406.1-.819.166-1.225.248H9.09a1.931,1.931,0,0,0-.6-.132A7.816,7.816,0,0,1,2.129,24.8,7.65,7.65,0,0,1,4.446,18.3q6.927-6.952,13.88-13.888A7.882,7.882,0,0,1,22.183,2.24,3.42,3.42,0,0,0,23.118,2.05ZM13.2,11.99c1.953,1.953,3.882,3.882,5.818,5.827l.05-.033a7.747,7.747,0,0,1,6.8-1.44.29.29,0,0,0,.323-.108c.662-.662,1.333-1.324,1.986-1.995a6.09,6.09,0,1,0-8.657-8.566C18.02,7.19,16.505,8.7,14.991,10.211,14.387,10.807,13.791,11.411,13.2,11.99Zm4.536,7.1c-.257-.3-5.62-5.645-5.818-5.8-.033.033-.074.058-.108.091C9.743,15.45,7.649,17.5,5.605,19.6a5.887,5.887,0,0,0-1.556,6.058,6.069,6.069,0,0,0,9.882,2.8c.778-.7,1.481-1.465,2.235-2.193a.464.464,0,0,0,.149-.521,7.712,7.712,0,0,1,1.217-6.34A.872.872,0,0,0,17.739,19.091Zm5.305,10.851V17.908a6.08,6.08,0,0,0,0,12.034Zm1.763.008A6.1,6.1,0,0,0,30,23.519a6.024,6.024,0,0,0-5.2-5.587C24.807,21.93,24.807,25.928,24.807,29.95Z" transform="translate(-2.077 -2.05)" fill="#141414"/>
</svg>
