<?xml version="1.0" encoding="utf-8"?>
<!-- Generator: Adobe Illustrator 24.2.1, SVG Export Plug-In . SVG Version: 6.00 Build 0)  -->
<svg version="1.1" xmlns="http://www.w3.org/2000/svg" xmlns:xlink="http://www.w3.org/1999/xlink" x="0px" y="0px"
	 viewBox="0 0 1092 1159" style="enable-background:new 0 0 1092 1159;" xml:space="preserve">
<style type="text/css">
	.st0{fill:#358E3D;}
	.st1{fill:#5B5757;}
</style>
<g id="Background">
</g>
<g id="Objects">
	<g>
		<g>
			<path class="st0" d="M961.89,176.37c-7.72-1.6-15.32-3.23-22.81-4.9c-15,17.62-29.84,35.76-44.64,54.53
				c9.47,2.31,18.6,4.45,27.37,6.43c-9.28,110.35-36.12,336.74-79.85,408.01c-58.56,95.45-140.04,173.04-198.09,221.32
				c-41.93,34.88-78.04,59.95-97.87,73.04c-19.84-13.09-55.95-38.15-97.88-73.04c-58.04-48.28-139.53-125.87-198.08-221.32
				c-43.71-71.24-70.56-297.64-79.85-408C296.3,204.04,393.13,166,453.6,138.21c43.49-19.98,74.53-37.45,92.4-48.22
				c17.88,10.77,48.9,28.23,92.4,48.22c48.27,22.18,96.36,40.37,141.63,55.19c17.93-16.89,36.17-33.27,54.72-49.13
				c-71.33-21.4-128.12-44.42-168.11-62.71c-66.65-30.48-102.36-54.8-102.68-55.02c-10.82-7.46-25.12-7.46-35.93,0
				c-1.4,0.97-142.81,97.1-397.94,149.83c-15.5,3.2-26.25,17.37-25.15,33.17c0.06,0.88,6.31,89.27,20.16,188.91
				c18.99,136.69,42.88,229.24,71,275.07c63.31,103.19,150.53,186.22,212.54,237.7c67.05,55.66,118.91,86.92,121.09,88.23
				c5.01,3,10.64,4.5,16.26,4.5s11.25-1.5,16.26-4.5c2.18-1.31,54.03-32.56,121.09-88.23c62.01-51.48,149.22-134.51,212.53-237.7
				c28.12-45.83,52.01-138.38,71.01-275.07c13.85-99.64,20.09-188.03,20.16-188.91C988.15,193.75,977.4,179.57,961.89,176.37z"/>
			<path class="st0" d="M970.65,91.21c-9.8,11.31-19.64,22.51-29.5,33.63c-87.75,99.02-163.19,206.79-233.02,318.91
				c0,0.01-0.01,0.01-0.01,0.02c-38.24,61.4-72.32,125.59-105.83,189.66c-7.01,13.41-14.06,26.82-21.5,40.01
				c-13.79,24.58-44.89,33.33-69.47,19.54c-5.85-3.28-10.9-7.69-14.87-12.62c-24.72-30.81-64.85-72.31-96.44-96.6
				c-25.24-19.3-58.78-39.96-93.26-54.48c-13.33-5.62-15.84-23.5-4.58-32.58c23.43-18.88,62.49-32,107.95-15.64
				c26.35,9.49,89.75,56.07,114.58,79.99c32.02-56.72,67.93-110.87,107.91-162.29c73.16-94.09,156.52-180.56,248.83-255.7
				c14.5-11.85,29.5-23.36,44.32-34.75c12.06-8.85,24.13-17.63,36.25-26.3c2.72-1.95,6.56-1.59,8.7,0.98
				C972.76,85.46,972.61,88.93,970.65,91.21z"/>
		</g>
		<g>
			<path class="st1" d="M154.02,1035.24l-33.06,63.21v38.3h-13.25v-38.3l-33.21-63.21h14.71l25.05,51.41l25.05-51.41H154.02z"/>
			<path class="st1" d="M182.49,1132.96c-6.07-3.4-10.83-8.23-14.27-14.49c-3.45-6.26-5.17-13.52-5.17-21.77
				c0-8.16,1.77-15.36,5.32-21.63c3.54-6.26,8.37-11.07,14.49-14.42c6.12-3.35,12.96-5.02,20.54-5.02s14.42,1.67,20.54,5.02
				c6.12,3.35,10.95,8.13,14.49,14.35c3.54,6.21,5.32,13.45,5.32,21.7c0,8.25-1.82,15.51-5.46,21.77
				c-3.64,6.26-8.57,11.09-14.78,14.49c-6.21,3.4-13.11,5.1-20.68,5.1C195.33,1138.06,188.56,1136.36,182.49,1132.96z
				 M216.21,1123.06c4.17-2.23,7.55-5.58,10.12-10.05c2.57-4.46,3.86-9.9,3.86-16.31s-1.26-11.84-3.79-16.31
				c-2.53-4.46-5.83-7.79-9.9-9.98c-4.08-2.18-8.5-3.28-13.25-3.28c-4.86,0-9.3,1.09-13.33,3.28c-4.03,2.18-7.26,5.51-9.69,9.98
				c-2.43,4.47-3.64,9.9-3.64,16.31c0,6.51,1.19,11.99,3.57,16.46c2.38,4.47,5.56,7.79,9.54,9.98c3.98,2.18,8.35,3.28,13.11,3.28
				C207.56,1126.41,212.03,1125.3,216.21,1123.06z"/>
			<path class="st1" d="M331.99,1056.94v79.81h-13.25v-11.8c-2.53,4.08-6.04,7.26-10.56,9.54c-4.51,2.28-9.49,3.42-14.93,3.42
				c-6.21,0-11.8-1.29-16.75-3.86c-4.95-2.57-8.86-6.43-11.72-11.58c-2.86-5.15-4.3-11.41-4.3-18.79v-46.75h13.11v45
				c0,7.86,1.99,13.91,5.97,18.13c3.98,4.22,9.42,6.33,16.31,6.33c7.09,0,12.67-2.18,16.75-6.55c4.08-4.37,6.12-10.73,6.12-19.08
				v-43.84H331.99z"/>
			<path class="st1" d="M356.46,1035.24h14.71l-13.98,33.06h-9.32L356.46,1035.24z"/>
			<path class="st1" d="M409.54,1059.27c4.32-2.52,9.59-3.79,15.8-3.79v13.69h-3.5c-14.86,0-22.28,8.06-22.28,24.18v43.4h-13.25
				v-79.81h13.25v12.96C401.9,1065.34,405.22,1061.8,409.54,1059.27z"/>
			<path class="st1" d="M513.02,1101.8h-63.79c0.49,7.86,3.18,14.01,8.08,18.42c4.9,4.42,10.85,6.63,17.84,6.63
				c5.73,0,10.51-1.33,14.35-4c3.83-2.67,6.53-6.24,8.08-10.71h14.27c-2.14,7.67-6.41,13.91-12.82,18.71s-14.37,7.21-23.88,7.21
				c-7.57,0-14.35-1.7-20.32-5.1c-5.97-3.4-10.66-8.23-14.05-14.49c-3.4-6.26-5.1-13.52-5.1-21.77c0-8.25,1.65-15.49,4.95-21.7
				c3.3-6.21,7.94-11,13.91-14.35c5.97-3.35,12.84-5.02,20.61-5.02c7.57,0,14.27,1.65,20.1,4.95c5.83,3.3,10.31,7.84,13.47,13.62
				c3.15,5.78,4.73,12.31,4.73,19.59C513.45,1096.31,513.31,1098.98,513.02,1101.8z M496.41,1077.98c-2.24-3.64-5.27-6.41-9.1-8.3
				c-3.84-1.89-8.08-2.84-12.74-2.84c-6.7,0-12.4,2.14-17.11,6.41c-4.71,4.27-7.4,10.19-8.08,17.77h50.39
				C499.76,1085.97,498.65,1081.63,496.41,1077.98z"/>
			<path class="st1" d="M569.81,1075.07c3.3-6.17,7.84-10.95,13.62-14.35c5.78-3.4,12.21-5.1,19.3-5.1c6.99,0,13.06,1.51,18.2,4.52
				c5.15,3.01,8.98,6.8,11.51,11.36v-14.56h13.4v79.81h-13.4v-14.86c-2.62,4.66-6.53,8.52-11.72,11.58
				c-5.2,3.06-11.24,4.59-18.13,4.59c-7.09,0-13.5-1.75-19.22-5.24c-5.73-3.5-10.25-8.4-13.54-14.71
				c-3.3-6.31-4.95-13.49-4.95-21.55C564.86,1088.4,566.51,1081.24,569.81,1075.07z M628.8,1080.97c-2.43-4.46-5.71-7.89-9.83-10.27
				c-4.13-2.38-8.67-3.57-13.62-3.57s-9.47,1.17-13.54,3.5c-4.08,2.33-7.33,5.73-9.76,10.2c-2.43,4.47-3.64,9.71-3.64,15.73
				c0,6.12,1.21,11.43,3.64,15.95c2.43,4.51,5.68,7.96,9.76,10.34c4.08,2.38,8.59,3.57,13.54,3.57s9.49-1.19,13.62-3.57
				c4.13-2.38,7.4-5.83,9.83-10.34c2.43-4.51,3.64-9.78,3.64-15.8C632.44,1090.68,631.22,1085.44,628.8,1080.97z"/>
			<path class="st1" d="M681.52,1028.98v107.77h-13.25v-107.77H681.52z"/>
			<path class="st1" d="M717.34,1028.98v107.77h-13.25v-107.77H717.34z"/>
			<path class="st1" d="M790.6,1134.93c-4.86-2.09-8.69-5-11.5-8.74c-2.82-3.74-4.37-8.03-4.66-12.89h13.69
				c0.39,3.98,2.26,7.23,5.61,9.76c3.35,2.53,7.74,3.79,13.18,3.79c5.05,0,9.03-1.12,11.94-3.35c2.91-2.23,4.37-5.05,4.37-8.45
				c0-3.5-1.55-6.09-4.66-7.79c-3.11-1.7-7.92-3.37-14.42-5.02c-5.92-1.55-10.75-3.13-14.49-4.73c-3.74-1.6-6.94-3.98-9.61-7.14
				c-2.67-3.15-4-7.3-4-12.45c0-4.08,1.21-7.81,3.64-11.21c2.43-3.4,5.87-6.09,10.34-8.08c4.46-1.99,9.56-2.99,15.29-2.99
				c8.83,0,15.97,2.24,21.41,6.7c5.44,4.47,8.35,10.58,8.74,18.35H822.2c-0.29-4.17-1.97-7.52-5.02-10.05
				c-3.06-2.52-7.16-3.79-12.31-3.79c-4.76,0-8.54,1.02-11.36,3.06c-2.82,2.04-4.22,4.71-4.22,8.01c0,2.62,0.85,4.78,2.55,6.48
				c1.7,1.7,3.83,3.06,6.41,4.08c2.57,1.02,6.14,2.16,10.7,3.42c5.73,1.55,10.39,3.08,13.98,4.59c3.59,1.51,6.67,3.76,9.25,6.77
				c2.57,3.01,3.91,6.94,4,11.8c0,4.37-1.21,8.3-3.64,11.8c-2.43,3.5-5.85,6.24-10.27,8.23c-4.42,1.99-9.49,2.99-15.22,2.99
				C800.94,1138.06,795.45,1137.02,790.6,1134.93z"/>
			<path class="st1" d="M927.2,1101.8h-63.79c0.49,7.86,3.18,14.01,8.08,18.42c4.9,4.42,10.85,6.63,17.84,6.63
				c5.73,0,10.51-1.33,14.35-4c3.83-2.67,6.53-6.24,8.08-10.71h14.27c-2.14,7.67-6.41,13.91-12.82,18.71s-14.37,7.21-23.88,7.21
				c-7.57,0-14.35-1.7-20.32-5.1c-5.97-3.4-10.66-8.23-14.05-14.49c-3.4-6.26-5.1-13.52-5.1-21.77c0-8.25,1.65-15.49,4.95-21.7
				c3.3-6.21,7.94-11,13.91-14.35c5.97-3.35,12.84-5.02,20.61-5.02c7.57,0,14.27,1.65,20.1,4.95c5.83,3.3,10.31,7.84,13.47,13.62
				c3.15,5.78,4.73,12.31,4.73,19.59C927.64,1096.31,927.5,1098.98,927.2,1101.8z M910.6,1077.98c-2.24-3.64-5.27-6.41-9.1-8.3
				c-3.84-1.89-8.08-2.84-12.74-2.84c-6.7,0-12.4,2.14-17.11,6.41c-4.71,4.27-7.4,10.19-8.08,17.77h50.39
				C913.95,1085.97,912.83,1081.63,910.6,1077.98z"/>
			<path class="st1" d="M961.28,1067.86v47.04c0,3.88,0.82,6.63,2.48,8.23c1.65,1.6,4.52,2.4,8.59,2.4h9.76v11.21h-11.94
				c-7.38,0-12.91-1.7-16.6-5.1c-3.69-3.4-5.53-8.98-5.53-16.75v-47.04h-10.34v-10.92h10.34v-20.1h13.25v20.1h20.83v10.92H961.28z"
				/>
			<path class="st1" d="M1002.35,1135c-1.75-1.75-2.62-3.88-2.62-6.41c0-2.52,0.87-4.66,2.62-6.41c1.75-1.75,3.88-2.62,6.41-2.62
				c2.43,0,4.49,0.87,6.19,2.62c1.7,1.75,2.55,3.88,2.55,6.41c0,2.53-0.85,4.66-2.55,6.41c-1.7,1.75-3.76,2.62-6.19,2.62
				C1006.24,1137.62,1004.1,1136.75,1002.35,1135z M1015.31,1035.24l-1.6,72.82h-11.07l-1.6-72.82H1015.31z"/>
		</g>
	</g>
</g>
</svg>
